<?xml version="1.0" standalone="no"?><!DOCTYPE svg PUBLIC "-//W3C//DTD SVG 1.1//EN" "http://www.w3.org/Graphics/SVG/1.1/DTD/svg11.dtd"><svg class="icon" width="200px" height="200.00px" viewBox="0 0 1024 1024" version="1.1" xmlns="http://www.w3.org/2000/svg"><path d="M28.44 512a484.418 484.418 0 1 0 968.835 0 484.418 484.418 0 1 0-968.835 0z" fill="#FFC50B" /><path d="M512.858 27.582c267.205 0 484.417 217.213 484.417 484.418S780.063 996.418 512.858 996.418" fill="#FF7C10" /><path d="M585.262 265.481c0 48.27-37.926 86.196-86.196 86.196s-86.195-39.65-86.195-86.196c0-48.269 39.65-86.195 86.195-86.195 46.546-1.724 86.196 37.926 86.196 86.195z" fill="#D10D0D" /><path d="M512.858 0c-282.72 0-512 229.28-512 512s229.28 512 512 512 510.276-229.28 510.276-512C1024.858 229.28 795.578 0 512.858 0z m-15.516 867.125c-48.269 0-86.195-39.65-86.195-86.196 0-48.27 39.65-86.195 86.195-86.195 48.27 0 86.196 39.65 86.196 86.195 1.724 46.546-37.926 86.196-86.196 86.196zM512.858 512C397.356 548.202 280.13 584.404 280.13 744.727c0 127.57 103.435 232.728 232.728 232.728-256.862 0-465.455-208.593-465.455-465.455S255.996 46.545 512.858 46.545c127.569 0 232.727 103.435 232.727 232.728 0 160.323-117.226 196.525-232.727 232.727z" fill="#D10D0D" /><path d="M512.858 0v46.545c120.673 0 232.727 103.435 232.727 232.728 0 160.323-112.054 196.525-232.727 232.727v182.734c34.478 6.896 72.404 43.098 72.404 84.471 0 43.098-37.926 77.576-72.404 86.196v156.875c275.825 0 510.276-229.28 510.276-512C1023.134 229.28 788.683 1.724 512.858 0z" fill="#8C0000" /><path d="M512.858 179.286v170.667c34.478-6.896 70.68-43.098 70.68-84.472 0-43.097-36.202-79.3-70.68-86.195z" fill="#8C0000" /><path d="M264.947 237.394a29.306 122.395 45.001 1 0-41.445-41.446 29.306 122.395 45.001 1 0 41.445 41.446z" fill="#FFDD7D" /></svg>